<svg width="52" height="52" viewBox="0 0 52 52" fill="none" xmlns="http://www.w3.org/2000/svg">
<path fill-rule="evenodd" clip-rule="evenodd" d="M9.6773 13.8201C7.85718 15.6402 7.85718 18.5697 7.85718 24.4286V28.5714C7.85718 34.4303 7.85718 37.3597 9.6773 39.1798C11.4974 41 14.4269 41 20.2857 41H32.7143C38.5731 41 41.5026 41 43.3227 39.1798C45.1429 37.3597 45.1429 34.4303 45.1429 28.5714V24.4286C45.1429 18.5697 45.1429 15.6402 43.3227 13.8201C41.5026 12 38.5731 12 32.7143 12H20.2857C14.4269 12 11.4974 12 9.6773 13.8201ZM15.2205 18.5622C14.2686 17.9276 12.9825 18.1848 12.3479 19.1367C11.7133 20.0886 11.9706 21.3747 12.9224 22.0092L24.202 29.5288C25.5936 30.4566 27.4065 30.4566 28.7981 29.5288L40.0776 22.0092C41.0294 21.3747 41.2867 20.0886 40.6522 19.1367C40.0176 18.1848 38.7314 17.9276 37.7796 18.5622L26.5 26.082L15.2205 18.5622Z" fill="white"/>
</svg>
