<svg width="52" height="52" viewBox="0 0 52 52" fill="none" xmlns="http://www.w3.org/2000/svg">
<path fill-rule="evenodd" clip-rule="evenodd" d="M26 7.66675C15.8747 7.66675 7.66663 15.8749 7.66663 26.0001C7.66663 29.3281 8.55489 32.4527 10.1073 35.1453C10.4234 35.6936 10.4777 36.3613 10.2109 36.9354L8.64574 40.303C7.6847 42.1211 9.00012 44.3334 11.0795 44.3334H26C36.1251 44.3334 44.3333 36.1252 44.3333 26.0001C44.3333 15.8749 36.1251 7.66675 26 7.66675ZM18.667 28.3834C19.9833 28.3834 21.0503 27.3162 21.0503 26.0001C21.0503 24.6837 19.9833 23.6167 18.667 23.6167C17.3507 23.6167 16.2837 24.6837 16.2837 26.0001C16.2837 27.3162 17.3507 28.3834 18.667 28.3834ZM33.3337 28.3834C34.65 28.3834 35.717 27.3162 35.717 26.0001C35.717 24.6837 34.65 23.6167 33.3337 23.6167C32.0173 23.6167 30.9503 24.6837 30.9503 26.0001C30.9503 27.3162 32.0173 28.3834 33.3337 28.3834ZM26.0003 28.3834C27.3167 28.3834 28.3837 27.3162 28.3837 26.0001C28.3837 24.6837 27.3167 23.6167 26.0003 23.6167C24.684 23.6167 23.617 24.6837 23.617 26.0001C23.617 27.3162 24.684 28.3834 26.0003 28.3834Z" fill="white"/>
</svg>
